<svg width="135" height="107" viewBox="0 0 135 107" fill="none" xmlns="http://www.w3.org/2000/svg">
<rect width="135" height="107" fill="white"/>
<g filter="url(#filter0_d_1_88)">
<ellipse cx="68" cy="91.5" rx="57" ry="4.5" fill="#DBE8EC"/>
</g>
<path d="M71 83C91.9868 83 109 65.763 109 44.5C109 23.237 91.9868 6 71 6C50.0132 6 33 23.237 33 44.5C33 65.763 50.0132 83 71 83Z" fill="#DBE8EC"/>
<path d="M125 39.4373V35.277C125 34.4836 124.69 33.7228 124.139 33.1618C123.587 32.6009 122.839 32.2857 122.06 32.2857H109.423C109.037 32.2857 108.654 32.2083 108.298 32.058C107.941 31.9077 107.617 31.6874 107.344 31.4096C107.071 31.1318 106.854 30.8021 106.706 30.4392C106.558 30.0762 106.482 29.6873 106.482 29.2944V25.1341C106.482 24.3408 106.792 23.58 107.344 23.019C107.895 22.458 108.643 22.1429 109.423 22.1429H114.267C115.047 22.1429 115.795 21.8277 116.346 21.2667C116.898 20.7058 117.207 19.9449 117.207 19.1516V14.9913C117.207 14.1979 116.898 13.4371 116.346 12.8761C115.795 12.3152 115.047 12 114.267 12H27.5694C26.7896 12 26.0417 12.3152 25.4902 12.8761C24.9388 13.4371 24.629 14.1979 24.629 14.9913V19.1516C24.629 19.9449 24.9388 20.7058 25.4902 21.2667C26.0417 21.8277 26.7896 22.1429 27.5694 22.1429V22.1429C28.3493 22.1429 29.0972 22.458 29.6486 23.019C30.2 23.58 30.5098 24.3408 30.5098 25.1341V29.2944C30.5098 30.0878 30.2 30.8486 29.6486 31.4096C29.0972 31.9706 28.3493 32.2857 27.5694 32.2857H13.9404C13.1606 32.2857 12.4127 32.6009 11.8612 33.1618C11.3098 33.7228 11 34.4836 11 35.277V39.4373C11 40.2306 11.3098 40.9915 11.8612 41.5524C12.4127 42.1134 13.1606 42.4286 13.9404 42.4286H27.435C27.8212 42.4286 28.2035 42.5059 28.5603 42.6563C28.917 42.8066 29.2412 43.0269 29.5142 43.3047C29.7872 43.5824 30.0038 43.9122 30.1516 44.2751C30.2994 44.638 30.3754 45.027 30.3754 45.4198V49.5802C30.4475 53.3871 22.2843 52.5714 20.6604 52.5714H20.6496C19.8697 52.5714 19.1218 52.8866 18.5704 53.4476C18.019 54.0085 17.7092 54.7694 17.7092 55.5627V59.723C17.7092 60.5163 18.019 61.2772 18.5704 61.8382C19.1218 62.3991 19.8697 62.7143 20.6496 62.7143H28.0698C28.8496 62.7143 29.5975 63.0294 30.1489 63.5904C30.7004 64.1514 31.0102 64.9122 31.0102 65.7056V69.8659C31.0102 70.6592 30.7004 71.4201 30.1489 71.981C29.5975 72.542 28.8496 72.8572 28.0698 72.8572H19.7339C18.954 72.8572 18.2061 73.1723 17.6547 73.7333C17.1033 74.2943 16.7935 75.0551 16.7935 75.8484V80.0087C16.7935 80.8021 17.1033 81.5629 17.6547 82.1239C18.2061 82.6849 18.954 83 19.7339 83H113.587C114.367 83 115.115 82.6849 115.666 82.1239C116.218 81.5629 116.528 80.8021 116.528 80.0087V75.8484C116.528 75.0551 116.218 74.2942 115.666 73.7333C115.115 73.1723 114.367 72.8572 113.587 72.8572H108.78C108 72.8572 107.252 72.542 106.7 71.981C106.149 71.4201 105.839 70.6592 105.839 69.8659V65.7055C105.839 64.9122 106.149 64.1514 106.7 63.5904C107.252 63.0294 108 62.7143 108.78 62.7143H117.049C117.829 62.7143 118.577 62.3991 119.128 61.8382C119.68 61.2772 119.99 60.5163 119.99 59.723V55.5627C119.99 54.7694 119.68 54.0085 119.128 53.4476C118.577 52.8866 117.829 52.5714 117.049 52.5714H112.967C112.188 52.5714 111.44 52.2563 110.888 51.6953C110.337 51.1343 110.027 50.3735 110.027 49.5802V45.4198C110.027 45.027 110.103 44.638 110.251 44.2751C110.399 43.9122 110.615 43.5825 110.888 43.3047C111.161 43.0269 111.485 42.8066 111.842 42.6563C112.199 42.5059 112.581 42.4286 112.967 42.4286H122.06C122.839 42.4286 123.587 42.1134 124.139 41.5524C124.69 40.9915 125 40.2306 125 39.4373V39.4373Z" fill="#DBE8EC"/>
<path d="M68 36C73.5229 36 78 31.5228 78 26C78 20.4772 73.5229 16 68 16C62.4772 16 58 20.4772 58 26C58 31.5228 62.4772 36 68 36Z" fill="#3B82F6"/>
<path d="M65.0002 23.4749C65.0001 23.4629 65 23.4509 65 23.4389C65 22.7608 65.204 22.098 65.5863 21.5335C65.9687 20.9691 66.5123 20.5283 67.1489 20.2666C67.7855 20.0048 68.4866 19.9338 69.1641 20.0625C69.8417 20.1911 70.4654 20.5137 70.9569 20.9896C71.4483 21.4656 71.7857 22.0737 71.9264 22.7374C72.0672 23.4012 72.0051 24.091 71.748 24.7202C71.4908 25.3494 71.0501 25.8899 70.4813 26.2737C69.9124 26.6575 69.2408 26.8675 68.5508 26.8774V30" stroke="#F9AE2B" stroke-linecap="round" stroke-linejoin="round"/>
<path d="M107.941 15H114.814" stroke="#3B82F6" stroke-miterlimit="10" stroke-linecap="round"/>
<path d="M107.941 16.9914H114.814" stroke="#3B82F6" stroke-miterlimit="10" stroke-linecap="round"/>
<path d="M107.941 18.9825H114.814" stroke="#3B82F6" stroke-miterlimit="10" stroke-linecap="round"/>
<path d="M21 55.8176H27.8732" stroke="#3B82F6" stroke-miterlimit="10" stroke-linecap="round"/>
<path d="M21 57.8088H27.8732" stroke="#3B82F6" stroke-miterlimit="10" stroke-linecap="round"/>
<path d="M21 59.8001H27.8732" stroke="#3B82F6" stroke-miterlimit="10" stroke-linecap="round"/>
<path d="M106.127 76.0175H113" stroke="#3B82F6" stroke-miterlimit="10" stroke-linecap="round"/>
<path d="M106.127 78.0088H113" stroke="#3B82F6" stroke-miterlimit="10" stroke-linecap="round"/>
<path d="M106.127 80H113" stroke="#3B82F6" stroke-miterlimit="10" stroke-linecap="round"/>
<path d="M107.073 60.4424C108.69 60.4424 110 59.1254 110 57.5008C110 55.8762 108.69 54.5593 107.073 54.5593C105.457 54.5593 104.146 55.8762 104.146 57.5008C104.146 59.1254 105.457 60.4424 107.073 60.4424Z" fill="#3B82F6" fill-opacity="0.4"/>
<path d="M99.3489 61.1491C100.187 61.1491 100.867 60.4662 100.867 59.6238C100.867 58.7815 100.187 58.0986 99.3489 58.0986C98.5108 58.0986 97.8313 58.7815 97.8313 59.6238C97.8313 60.4662 98.5108 61.1491 99.3489 61.1491Z" fill="#3B82F6" fill-opacity="0.4"/>
<path d="M103.203 52.482C104.4 52.482 105.371 51.5064 105.371 50.303C105.371 49.0995 104.4 48.1239 103.203 48.1239C102.005 48.1239 101.034 49.0995 101.034 50.303C101.034 51.5064 102.005 52.482 103.203 52.482Z" fill="#3B82F6" fill-opacity="0.4"/>
<path d="M40.4688 80C42.3922 80 43.9514 78.433 43.9514 76.5C43.9514 74.5671 42.3922 73.0001 40.4688 73.0001C38.5455 73.0001 36.9862 74.5671 36.9862 76.5C36.9862 78.433 38.5455 80 40.4688 80Z" fill="#3B82F6" fill-opacity="0.4"/>
<path d="M33.814 75.8304C34.8159 75.8304 35.628 75.0142 35.628 74.0074C35.628 73.0005 34.8159 72.1843 33.814 72.1843C32.8122 72.1843 32 73.0005 32 74.0074C32 75.0142 32.8122 75.8304 33.814 75.8304Z" fill="#3B82F6" fill-opacity="0.4"/>
<path d="M35.4803 68.8618C36.0582 68.8618 36.5267 68.391 36.5267 67.8102C36.5267 67.2294 36.0582 66.7586 35.4803 66.7586C34.9024 66.7586 34.4339 67.2294 34.4339 67.8102C34.4339 68.391 34.9024 68.8618 35.4803 68.8618Z" fill="#3B82F6" fill-opacity="0.4"/>
<path d="M41.2727 71.0752C42.6581 71.0752 43.7812 69.9465 43.7812 68.5542C43.7812 67.1619 42.6581 66.0332 41.2727 66.0332C39.8873 66.0332 38.7642 67.1619 38.7642 68.5542C38.7642 69.9465 39.8873 71.0752 41.2727 71.0752Z" fill="#3B82F6" fill-opacity="0.4"/>
<path d="M43.0191 27.4591C44.9425 27.4591 46.5017 25.8921 46.5017 23.9591C46.5017 22.0261 44.9425 20.4592 43.0191 20.4592C41.0957 20.4592 39.5365 22.0261 39.5365 23.9591C39.5365 25.8921 41.0957 27.4591 43.0191 27.4591Z" fill="#3B82F6" fill-opacity="0.4"/>
<path d="M43.1605 18.6461C44.1623 18.6461 44.9745 17.8299 44.9745 16.8231C44.9745 15.8162 44.1623 15 43.1605 15C42.1586 15 41.3465 15.8162 41.3465 16.8231C41.3465 17.8299 42.1586 18.6461 43.1605 18.6461Z" fill="#3B82F6" fill-opacity="0.4"/>
<path d="M55.2429 19.4661C56.11 19.4661 56.8129 18.7597 56.8129 17.8883C56.8129 17.0169 56.11 16.3105 55.2429 16.3105C54.3758 16.3105 53.6729 17.0169 53.6729 17.8883C53.6729 18.7597 54.3758 19.4661 55.2429 19.4661Z" fill="#3B82F6" fill-opacity="0.4"/>
<path d="M49.531 17.4066C50.1089 17.4066 50.5774 16.9358 50.5774 16.355C50.5774 15.7742 50.1089 15.3034 49.531 15.3034C48.9531 15.3034 48.4846 15.7742 48.4846 16.355C48.4846 16.9358 48.9531 17.4066 49.531 17.4066Z" fill="#3B82F6" fill-opacity="0.4"/>
<path d="M50.747 24.6162C52.1324 24.6162 53.2555 23.4875 53.2555 22.0952C53.2555 20.7028 52.1324 19.5742 50.747 19.5742C49.3616 19.5742 48.2385 20.7028 48.2385 22.0952C48.2385 23.4875 49.3616 24.6162 50.747 24.6162Z" fill="#3B82F6" fill-opacity="0.4"/>
<path d="M98.4182 44H38.9394L37 39H98.4182C98.4946 39 98.5702 39.0153 98.6408 39.045C98.7114 39.0748 98.7756 39.1184 98.8296 39.1733C98.8836 39.2282 98.9265 39.2935 98.9557 39.3653C98.985 39.437 99 39.514 99 39.5917V43.4083C99 43.486 98.9849 43.563 98.9557 43.6347C98.9265 43.7065 98.8836 43.7718 98.8296 43.8267C98.7756 43.8816 98.7114 43.9252 98.6408 43.955C98.5702 43.9847 98.4946 44 98.4182 44V44Z" fill="#3B82F6"/>
<path d="M89.4529 69H49.2954C49.0994 69 48.9082 68.9417 48.7471 68.833C48.586 68.7242 48.4628 68.5702 48.394 68.3914L39 44H96L90.3922 68.2678C90.3442 68.4756 90.225 68.6613 90.0543 68.7944C89.8836 68.9275 89.6715 69 89.4529 69V69Z" fill="#F9AE2B"/>
<path d="M93 56.4999C88.9167 56.7069 84.8333 56.8152 80.75 56.8888C78.7083 56.9348 76.6667 56.9451 74.625 56.9722L68.5 56.9998C64.4167 57.0028 60.3333 56.9662 56.25 56.8903C52.1667 56.817 48.0833 56.7081 44 56.4999C48.0833 56.2917 52.1667 56.1829 56.25 56.1096C60.3333 56.0371 64.4167 56.0006 68.5 56L74.625 56.0276C76.6667 56.0547 78.7083 56.065 80.75 56.1111C84.8333 56.1846 88.9167 56.2929 93 56.4999Z" fill="#3B82F6"/>
<path d="M85 44C84.7677 46.1811 84.4126 48.3351 84.0207 50.4809C83.6237 52.6257 83.1806 54.7602 82.6915 56.8845C82.2049 59.0095 81.6736 61.1245 81.0974 63.2296C80.8066 64.2815 80.5055 65.3312 80.184 66.3764C80.0177 66.8977 79.8594 67.4208 79.6866 67.9407L79.5534 68.3357C79.5011 68.4807 79.4159 68.6121 79.3044 68.7202C79.1998 68.8218 79.0733 68.8992 78.9343 68.9466C78.7952 68.9939 78.6471 69.0101 78.5009 68.9939C78.633 68.9786 78.7601 68.9354 78.8736 68.8672C78.9871 68.7991 79.0842 68.7077 79.1582 68.5992C79.2274 68.4993 79.273 68.3855 79.2916 68.2661L79.3447 67.8651C79.4156 67.3227 79.501 66.7835 79.5785 66.2425C79.7445 65.163 79.9309 64.0879 80.1276 63.0152C80.5248 60.8705 80.9684 58.7361 81.4585 56.6119C81.9468 54.4874 82.4787 52.3725 83.0543 50.2673C83.6374 48.1637 84.2573 46.0683 85 44ZM62.2199 68.9939C62.0677 69.0101 61.9138 68.9912 61.7703 68.9389C61.6267 68.8866 61.4976 68.8021 61.3931 68.6923C61.2905 68.5767 61.2082 68.4452 61.1495 68.3031L60.9607 67.919C60.709 67.4068 60.4717 66.8894 60.2265 66.3748C59.7466 65.3418 59.2862 64.3016 58.8353 63.258C57.9375 61.1692 57.0839 59.0641 56.2744 56.9427C55.4625 54.8223 54.6936 52.686 53.9677 50.5338C53.248 48.3794 52.5645 46.2116 52 44C53.0575 46.03 53.996 48.1038 54.8983 50.1909C55.796 52.2798 56.6491 54.385 57.4576 56.5067C58.2679 58.6278 59.0363 60.7643 59.7627 62.9162C60.1229 63.9934 60.4735 65.074 60.8045 66.1618C60.9648 66.7076 61.1331 67.2506 61.2869 67.7988L61.4021 68.21C61.4284 68.339 61.4759 68.4631 61.5426 68.5772C61.6164 68.6921 61.7155 68.7893 61.8328 68.8614C61.9501 68.9336 62.0824 68.9789 62.2199 68.9939Z" fill="#3B82F6"/>
<path d="M59 89C61.2091 89 63 87.2091 63 85C63 82.7909 61.2091 81 59 81C56.7909 81 55 82.7909 55 85C55 87.2091 56.7909 89 59 89Z" fill="#3B82F6"/>
<path d="M59.5 87C60.3284 87 61 86.1046 61 85C61 83.8954 60.3284 83 59.5 83C58.6716 83 58 83.8954 58 85C58 86.1046 58.6716 87 59.5 87Z" fill="#DBE8EC"/>
<path d="M82 89C84.2091 89 86 87.2091 86 85C86 82.7909 84.2091 81 82 81C79.7909 81 78 82.7909 78 85C78 87.2091 79.7909 89 82 89Z" fill="#3B82F6"/>
<path d="M82 87C83.1046 87 84 86.1046 84 85C84 83.8954 83.1046 83 82 83C80.8954 83 80 83.8954 80 85C80 86.1046 80.8954 87 82 87Z" fill="#DBE8EC"/>
<path d="M69.1446 44C69.5811 46.0681 69.8762 48.1434 70.1287 50.2211C70.3753 52.299 70.5689 54.3797 70.7094 56.4631C70.8529 58.5464 70.9448 60.6323 70.9849 62.721C71.0176 64.81 71.0069 66.9013 70.8533 69C70.4149 66.932 70.1194 64.8567 69.8673 62.779C69.6208 60.7011 69.4279 58.6204 69.2885 56.5369C69.1469 54.4535 69.0557 52.3675 69.0149 50.2789C68.9827 48.1899 68.9929 46.0986 69.1446 44Z" fill="#3B82F6"/>
<path d="M89.3609 79H53.238C53.1087 79 52.9825 78.9609 52.8759 78.888C52.7694 78.815 52.6876 78.7116 52.6413 78.5914L31.7205 24.2732H20.6391C20.4696 24.2732 20.3071 24.2061 20.1872 24.0867C20.0673 23.9674 20 23.8054 20 23.6366C20 23.4678 20.0673 23.3058 20.1872 23.1865C20.3071 23.0671 20.4696 23 20.6391 23H32.1598C32.2891 23 32.4154 23.0391 32.5219 23.112C32.6285 23.185 32.7103 23.2884 32.7566 23.4086L53.6774 77.7268H89.3609C89.5304 77.7268 89.6929 77.7939 89.8128 77.9133C89.9327 78.0326 90 78.1946 90 78.3634C90 78.5322 89.9327 78.6942 89.8128 78.8136C89.6929 78.9329 89.5304 79 89.3609 79V79Z" fill="#3B82F6"/>
<path d="M26.5455 22H18.4545C18.2035 22 18 22.1951 18 22.4357V25.5643C18 25.8049 18.2035 26 18.4545 26H26.5455C26.7965 26 27 25.8049 27 25.5643V22.4357C27 22.1951 26.7965 22 26.5455 22Z" fill="#3B82F6"/>
<path d="M68.5 33C68.7761 33 69 32.7761 69 32.5C69 32.2239 68.7761 32 68.5 32C68.2239 32 68 32.2239 68 32.5C68 32.7761 68.2239 33 68.5 33Z" fill="#F9AE2B" stroke="#F9AE2B" stroke-width="3"/>
<defs>
<filter id="filter0_d_1_88" x="7" y="87" width="122" height="17" filterUnits="userSpaceOnUse" color-interpolation-filters="sRGB">
<feFlood flood-opacity="0" result="BackgroundImageFix"/>
<feColorMatrix in="SourceAlpha" type="matrix" values="0 0 0 0 0 0 0 0 0 0 0 0 0 0 0 0 0 0 127 0" result="hardAlpha"/>
<feMorphology radius="1" operator="erode" in="SourceAlpha" result="effect1_dropShadow_1_88"/>
<feOffset dy="4"/>
<feGaussianBlur stdDeviation="2.5"/>
<feComposite in2="hardAlpha" operator="out"/>
<feColorMatrix type="matrix" values="0 0 0 0 0 0 0 0 0 0 0 0 0 0 0 0 0 0 0.19 0"/>
<feBlend mode="normal" in2="BackgroundImageFix" result="effect1_dropShadow_1_88"/>
<feBlend mode="normal" in="SourceGraphic" in2="effect1_dropShadow_1_88" result="shape"/>
</filter>
</defs>
</svg>
